<svg xmlns="http://www.w3.org/2000/svg" xmlns:xlink="http://www.w3.org/1999/xlink" viewBox="0,0,240.14063,256" width="24px" height="24px"><g fill="#ffffff" fill-rule="nonzero" stroke="none" stroke-width="1" stroke-linecap="butt" stroke-linejoin="miter" stroke-miterlimit="10" stroke-dasharray="" stroke-dashoffset="0" font-family="none" font-weight="none" font-size="none" text-anchor="none" style="mix-blend-mode: normal"><g transform="scale(11.34249,11.34249)"><path d="M10.69336,-0.02539l-0.69141,0.50195c-0.04345,0.03153 -0.08097,0.0686 -0.12305,0.10156c-0.28156,0.22057 -0.53216,0.47164 -0.74805,0.74805l-8.54492,8.54492c-0.7724,0.77263 -0.7724,2.05549 0,2.82813l9.89648,9.89648l0.69141,-0.50195c0.04344,-0.03154 0.08099,-0.06859 0.12305,-0.10156c0.28145,-0.22061 0.53221,-0.47161 0.74805,-0.74805l8.54492,-8.54492c0.7724,-0.77263 0.7724,-2.05549 0,-2.82813zM10.63281,2.74219l8.54297,8.54297l-6.33398,6.33398c-0.16945,-0.80098 -0.4745,-1.56606 -0.93555,-2.24023l4.08984,-4.08984l-4.61328,-4.66211c-0.67814,-0.69743 -1.08727,-1.60794 -1.17578,-2.57617c-0.0069,-0.48144 0.16836,-0.9172 0.42578,-1.30859zM8.33398,4.95117c0.16884,0.80073 0.47501,1.56219 0.93555,2.23633c0.00032,0.00047 -0.00032,0.00148 0,0.00195l-4.09375,4.0918l4.61328,4.66211c0.67869,0.69633 1.08978,1.60657 1.17969,2.57422c0.0072,0.48223 -0.16799,0.91852 -0.42578,1.31055l-8.54297,-8.54297zM10.60352,8.68164l2.57226,2.59961l-2.60742,2.60742l-2.57227,-2.59961z"></path></g></g></svg>